<svg width="221" height="290" viewBox="0 0 221 290" fill="none" xmlns="http://www.w3.org/2000/svg">
<g id="Frame 1">
<g id="sparkles">
<g id="big-star">
<path id="Star 1" d="M126.169 111.412L106.803 65.5952C105.942 63.5596 103.058 63.5596 102.197 65.5952L82.8312 111.412L30.5261 128.119C28.2069 128.859 28.2069 132.141 30.5261 132.881L82.8312 149.588L102.197 195.405C103.058 197.44 105.942 197.44 106.803 195.405L126.169 149.588L178.474 132.881C180.793 132.141 180.793 128.859 178.474 128.119L126.169 111.412Z" fill="#E2D768" stroke="black" stroke-width="3" stroke-linecap="round" stroke-linejoin="bevel"/>
<path id="Star 2" d="M104.049 116.938C104.347 116.016 105.653 116.016 105.951 116.938L108.64 125.244C108.73 125.52 108.935 125.744 109.202 125.857L116.822 129.079C117.636 129.423 117.636 130.577 116.822 130.921L109.202 134.143C108.935 134.256 108.73 134.48 108.64 134.756L105.951 143.062C105.653 143.984 104.347 143.984 104.049 143.062L101.36 134.756C101.27 134.48 101.065 134.256 100.798 134.143L93.1779 130.921C92.3639 130.577 92.3639 129.423 93.1779 129.079L100.798 125.857C101.065 125.744 101.27 125.52 101.36 125.244L104.049 116.938Z" fill="black"/>
</g>
<path id="spark2" d="M199.049 162.938C199.347 162.016 200.653 162.016 200.951 162.938L203.64 171.244C203.73 171.52 203.935 171.744 204.202 171.857L211.822 175.079C212.636 175.423 212.636 176.577 211.822 176.921L204.202 180.143C203.935 180.256 203.73 180.48 203.64 180.756L200.951 189.062C200.653 189.984 199.347 189.984 199.049 189.062L196.36 180.756C196.27 180.48 196.065 180.256 195.798 180.143L188.178 176.921C187.364 176.577 187.364 175.423 188.178 175.079L195.798 171.857C196.065 171.744 196.27 171.52 196.36 171.244L199.049 162.938Z" fill="black"/>
<path id="spark1" d="M13.0486 74.9383C13.3474 74.0157 14.6526 74.0157 14.9514 74.9383L17.6404 83.2436C17.7299 83.5198 17.9349 83.7435 18.2023 83.8566L25.8221 87.079C26.6361 87.4232 26.6361 88.5768 25.8221 88.921L18.2023 92.1434C17.9349 92.2565 17.7299 92.4802 17.6404 92.7564L14.9514 101.062C14.6526 101.984 13.3474 101.984 13.0486 101.062L10.3596 92.7564C10.2701 92.4802 10.0651 92.2565 9.79767 92.1434L2.17791 88.921C1.3639 88.5768 1.36391 87.4232 2.17791 87.079L9.79767 83.8566C10.0651 83.7435 10.2701 83.5198 10.3596 83.2436L13.0486 74.9383Z" fill="black"/>
<path id="pink-star" d="M41.9475 27.2946L35.3365 9.92244C34.5192 7.77466 31.4808 7.77468 30.6635 9.92244L24.0525 27.2946L6.15508 33.6439C3.93623 34.431 3.93622 37.569 6.15508 38.3561L24.0525 44.7054L30.6635 62.0776C31.4808 64.2253 34.5192 64.2253 35.3365 62.0776L41.9475 44.7054L59.8449 38.3561C62.0638 37.569 62.0638 34.431 59.8449 33.6439L41.9475 27.2946Z" fill="#DD8AD1" stroke="black" stroke-width="3" stroke-linecap="round" stroke-linejoin="bevel"/>
<path id="green-star" d="M160.948 238.295L154.337 220.922C153.519 218.775 150.481 218.775 149.663 220.922L143.052 238.295L125.155 244.644C122.936 245.431 122.936 248.569 125.155 249.356L143.052 255.705L149.663 273.078C150.481 275.225 153.519 275.225 154.337 273.078L160.948 255.705L178.845 249.356C181.064 248.569 181.064 245.431 178.845 244.644L160.948 238.295Z" fill="#8ADD96" stroke="black" stroke-width="3" stroke-linecap="round" stroke-linejoin="bevel"/>
</g>
</g>
</svg>
